<?xml version="1.0" encoding="UTF-8" standalone="no"?><!--Created with Inkscape (http://www.inkscape.org/)--><svg width="210mm" height="26.700001mm" viewBox="0 0 210 26.700001" version="1.1" id="svg977" sodipodi:docname="Logo.svg" inkscape:version="1.1 (c4e8f9e, 2021-05-24)" xmlns:inkscape="http://www.inkscape.org/namespaces/inkscape" xmlns:sodipodi="http://sodipodi.sourceforge.net/DTD/sodipodi-0.dtd" xmlns:xlink="http://www.w3.org/1999/xlink" xmlns="http://www.w3.org/2000/svg" xmlns:svg="http://www.w3.org/2000/svg"><sodipodi:namedview id="namedview979" pagecolor="#ffffff" bordercolor="#666666" borderopacity="1.0" inkscape:pageshadow="2" inkscape:pageopacity="0.0" inkscape:pagecheckerboard="0" inkscape:document-units="mm" showgrid="false" showguides="true" inkscape:guide-bbox="true" inkscape:lockguides="true" inkscape:zoom="0.62536325" inkscape:cx="437.34581" inkscape:cy="71.158642" inkscape:window-width="1383" inkscape:window-height="769" inkscape:window-x="57" inkscape:window-y="25" inkscape:window-maximized="0" inkscape:current-layer="layer1"/><defs id="defs974"><rect x="134.25719" y="126.07077" width="357.37567" height="133.90952" id="rect7352"/><rect x="116.24707" y="161.77731" width="416.50626" height="139.48271" id="rect4506"/><linearGradient id="linearGradient11048" inkscape:swatch="solid"><stop style="stop-color:#4d4d4d;stop-opacity:1;" offset="0" id="stop11046"/></linearGradient><linearGradient inkscape:collect="always" id="linearGradient9036"><stop style="stop-color:#000063;stop-opacity:1;" offset="0" id="stop9032"/><stop style="stop-color:#000063;stop-opacity:0;" offset="1" id="stop9034"/></linearGradient><rect x="146.49675" y="383.34778" width="139.47894" height="155.26901" id="rect8458"/><rect x="187.48857" y="896.51221" width="400.06363" height="196.73096" id="rect36913"/><linearGradient id="linearGradient1482" inkscape:swatch="solid"><stop style="stop-color:#00004c;stop-opacity:1;" offset="0" id="stop1480"/></linearGradient><radialGradient inkscape:collect="always" xlink:href="#linearGradient9036" id="radialGradient9040" cx="138.54349" cy="260.84918" fx="138.54349" fy="260.84918" r="46.462933" gradientTransform="matrix(1,0,0,0.11281295,0,231.42202)" gradientUnits="userSpaceOnUse"/><linearGradient inkscape:collect="always" xlink:href="#linearGradient11048" id="linearGradient11050" x1="92.256218" y1="260.84918" x2="184.83076" y2="260.84918" gradientUnits="userSpaceOnUse"/></defs><g inkscape:label="Ebene 1" inkscape:groupmode="layer" id="layer1" style="display:inline"><path d="m 32.887193,8.6057796 q 0.0242,1.9392284 -0.580825,3.5633334 -0.605026,1.599864 -1.718275,2.739161 -1.089048,1.139297 -2.662116,1.769546 -1.573068,0.606009 -3.484951,0.581769 -3.920571,0 -6.147067,-2.302835 -2.226498,-2.351315 -2.226498,-6.3509744 0,-4.0239 2.226498,-6.2540134 2.202295,-2.25435357 6.171268,-2.25435357 3.993173,0 6.195469,2.27859397 2.226497,2.278594 2.226497,6.229773 z m -3.557554,0 q 0,-2.7149206 -1.282656,-4.2420633 -1.258455,-1.5271428 -3.581756,-1.5271428 -2.347502,0 -3.630158,1.5271428 -1.258454,1.5271427 -1.258454,4.2420633 0,2.7634014 1.282655,4.3390244 1.306857,1.551383 3.581756,1.551383 2.347502,0 3.605957,-1.502902 1.282656,-1.527142 1.282656,-4.3875054 z" style="font-weight:bold;font-size:24.2207px;line-height:2.35;font-family:'Libra Sans';-inkscape-font-specification:'Libra Sans, Bold';letter-spacing:-0.684048px;fill:#8cc9c4;stroke-width:0.605532" id="path843"/><path d="M 44.965973,17.017185 37.705657,4.1697934 q 0.21781,1.8665078 0.21781,3.0058048 V 17.017185 H 34.825732 V 0.33981624 h 3.968973 L 46.176026,13.284169 Q 45.958217,11.514623 45.958217,10.035961 V 0.33981624 h 3.097734 V 17.017185 Z" style="font-weight:bold;font-size:24.2207px;line-height:2.35;font-family:'Libra Sans';-inkscape-font-specification:'Libra Sans, Bold';letter-spacing:-0.684048px;fill:#8cc9c4;stroke-width:0.605532" id="path845"/><path d="M 59.133607,3.0304964 V 17.017185 H 55.648655 V 3.0304964 H 50.276021 V 0.33981624 H 64.530442 V 3.0304964 Z" style="font-weight:bold;font-size:24.2207px;line-height:2.35;font-family:'Libra Sans';-inkscape-font-specification:'Libra Sans, Bold';letter-spacing:-0.684048px;fill:#8cc9c4;stroke-width:0.605532" id="path847"/><path d="m 81.507669,8.6057796 q 0.0242,1.9392284 -0.580825,3.5633334 -0.605026,1.599864 -1.718275,2.739161 -1.089047,1.139297 -2.662116,1.769546 -1.573068,0.606009 -3.484951,0.581769 -3.920571,0 -6.147068,-2.302835 -2.226496,-2.351315 -2.226496,-6.3509744 0,-4.0239 2.226496,-6.2540134 2.202296,-2.25435357 6.171268,-2.25435357 3.993175,0 6.195471,2.27859397 2.226496,2.278594 2.226496,6.229773 z m -3.557555,0 q 0,-2.7149206 -1.282655,-4.2420633 -1.258455,-1.5271428 -3.581757,-1.5271428 -2.347501,0 -3.630157,1.5271428 -1.258455,1.5271427 -1.258455,4.2420633 0,2.7634014 1.282656,4.3390244 1.306857,1.551383 3.581756,1.551383 2.347502,0 3.605957,-1.502902 1.282655,-1.527142 1.282655,-4.3875054 z" style="font-weight:bold;font-size:24.2207px;line-height:2.35;font-family:'Libra Sans';-inkscape-font-specification:'Libra Sans, Bold';letter-spacing:-0.684048px;fill:#8cc9c4;stroke-width:0.605532" id="path849"/><path d="M 83.446205,17.017185 V 0.33981624 H 96.538974 V 3.0304964 H 86.931157 V 7.224079 h 8.881785 v 2.7149204 h -8.881785 v 4.3875056 h 10.091838 v 2.69068 z" id="path851" style="font-weight:bold;font-size:24.2207px;line-height:2.35;font-family:'Libra Sans';-inkscape-font-specification:'Libra Sans, Bold';letter-spacing:-0.684048px;fill:#5c9894;stroke-width:0.605532"/><path d="m 109.57672,17.017185 -4.18678,-6.641859 -4.18678,6.641859 H 97.524604 L 103.28445,8.2421742 98.008625,0.33981624 h 3.678565 l 3.70275,5.89040786 3.70277,-5.89040786 h 3.65436 l -5.05802,7.90235796 5.54204,8.7750108 z" id="path853" style="font-weight:bold;font-size:24.2207px;line-height:2.35;font-family:'Libra Sans';-inkscape-font-specification:'Libra Sans, Bold';letter-spacing:-0.684048px;fill:#5c9894;stroke-width:0.605532"/><path d="m 128.10811,5.6242151 q 0,1.2120181 -0.43562,2.2301133 -0.41141,1.0180952 -1.21004,1.745306 -0.77444,0.7272116 -1.91189,1.1392976 -1.11325,0.412085 -2.51691,0.412085 h -4.13838 v 5.866168 h -3.48495 V 0.33981624 h 7.47812 q 3.02513,0 4.62241,1.38170066 1.59726,1.3574602 1.59726,3.9026982 z m -3.50915,0.04848 q 0,-2.6179592 -3.09774,-2.6179592 h -3.60595 V 8.460337 h 3.70276 q 1.45207,0 2.2265,-0.7029705 0.77443,-0.7029705 0.77443,-2.084671 z" id="path855" style="font-weight:bold;font-size:24.2207px;line-height:2.35;font-family:'Libra Sans';-inkscape-font-specification:'Libra Sans, Bold';letter-spacing:-0.684048px;fill:#5c9894;stroke-width:0.605532"/><path d="M 129.89237,17.017185 V 0.33981624 h 3.48495 V 14.326505 h 8.93019 v 2.69068 z" id="path857" style="font-weight:bold;font-size:24.2207px;line-height:2.35;font-family:'Libra Sans';-inkscape-font-specification:'Libra Sans, Bold';letter-spacing:-0.684048px;fill:#5c9894;stroke-width:0.605532"/><path d="m 160.19417,8.6057796 q 0.0242,1.9392284 -0.58083,3.5633334 -0.60502,1.599864 -1.71827,2.739161 -1.08905,1.139297 -2.66212,1.769546 -1.57306,0.606009 -3.48495,0.581769 -3.92057,0 -6.14707,-2.302835 -2.22649,-2.351315 -2.22649,-6.3509744 0,-4.0239 2.22649,-6.2540134 2.2023,-2.25435357 6.17127,-2.25435357 3.99318,0 6.19547,2.27859397 2.2265,2.278594 2.2265,6.229773 z m -3.55756,0 q 0,-2.7149206 -1.28265,-4.2420633 -1.25846,-1.5271428 -3.58176,-1.5271428 -2.3475,0 -3.63015,1.5271428 -1.25846,1.5271427 -1.25846,4.2420633 0,2.7634014 1.28266,4.3390244 1.30686,1.551383 3.58175,1.551383 2.3475,0 3.60596,-1.502902 1.28265,-1.527142 1.28265,-4.3875054 z" id="path859" style="font-weight:bold;font-size:24.2207px;line-height:2.35;font-family:'Libra Sans';-inkscape-font-specification:'Libra Sans, Bold';letter-spacing:-0.684048px;fill:#5c9894;stroke-width:0.605532"/><path d="m 173.5798,17.017185 -3.87217,-6.326735 h -4.08998 v 6.326735 H 162.1327 V 0.33981624 h 8.32516 q 3.00093,0 4.5982,1.28473916 1.59727,1.2604988 1.59727,3.684535 0,1.745306 -0.99224,3.0300452 -0.99225,1.2604988 -2.66212,1.6725854 l 4.50139,7.005464 z M 173.14418,5.4545326 q 0,-2.3997959 -3.04933,-2.3997959 h -4.4772 v 4.9207935 h 4.5498 q 1.47627,0 2.2265,-0.6544898 0.75023,-0.6787301 0.75023,-1.8665078 z" id="path861" style="font-weight:bold;font-size:24.2207px;line-height:2.35;font-family:'Libra Sans';-inkscape-font-specification:'Libra Sans, Bold';letter-spacing:-0.684048px;fill:#5c9894;stroke-width:0.605532"/><path d="M 178.93826,17.017185 V 0.33981624 h 13.09277 V 3.0304964 h -9.60782 V 7.224079 h 8.88179 v 2.7149204 h -8.88179 v 4.3875056 h 10.09183 v 2.69068 z" id="path863" style="font-weight:bold;font-size:24.2207px;line-height:2.35;font-family:'Libra Sans';-inkscape-font-specification:'Libra Sans, Bold';letter-spacing:-0.684048px;fill:#5c9894;stroke-width:0.605532"/><path d="m 205.86742,17.017185 -3.87217,-6.326735 h -4.08998 v 6.326735 h -3.48495 V 0.33981624 h 8.32516 q 3.00093,0 4.5982,1.28473916 1.59727,1.2604988 1.59727,3.684535 0,1.745306 -0.99224,3.0300452 -0.99225,1.2604988 -2.66212,1.6725854 l 4.50139,7.005464 z M 205.4318,5.4545326 q 0,-2.3997959 -3.04934,-2.3997959 h -4.47719 v 4.9207935 h 4.5498 q 1.47626,0 2.22649,-0.6544898 0.75024,-0.6787301 0.75024,-1.8665078 z" id="path865" style="font-weight:bold;font-size:24.2207px;line-height:2.35;font-family:'Libra Sans';-inkscape-font-specification:'Libra Sans, Bold';letter-spacing:-0.684048px;fill:#5c9894;stroke-width:0.605532"/><g id="g859" style="display:inline"><ellipse style="font-variation-settings:normal;vector-effect:none;fill:#5c9894;fill-opacity:1;fill-rule:evenodd;stroke-width:0.152995;stroke-linecap:butt;stroke-linejoin:miter;stroke-miterlimit:4;stroke-dasharray:none;stroke-dashoffset:0;stroke-opacity:1;-inkscape-stroke:none;stop-color:#000000" id="path32847-7-3-6" cx="5.1490746" cy="7.3097224" rx="4.6384654" ry="4.7376537"/><ellipse style="font-variation-settings:normal;vector-effect:none;fill:#5c9894;fill-opacity:1;fill-rule:evenodd;stroke-width:0.152995;stroke-linecap:butt;stroke-linejoin:miter;stroke-miterlimit:4;stroke-dasharray:none;stroke-dashoffset:0;stroke-opacity:1;-inkscape-stroke:none;stop-color:#000000" id="path32847-7-3-6-4" cx="9.2116747" cy="21.820244" rx="4.6381683" ry="4.7376537"/><path style="fill:#5c9894;fill-opacity:1;stroke:#5c9894;stroke-width:2.26307;stroke-linecap:butt;stroke-linejoin:miter;stroke-miterlimit:4;stroke-dasharray:none;stroke-opacity:1" d="m 7.8052269,7.196418 4.6603671,0.2617836 2.875587,0.161472 v 0" id="path50154" sodipodi:nodetypes="cccc"/><path style="fill:#5c9894;fill-opacity:1;stroke:#5c9894;stroke-width:2.26307;stroke-linecap:butt;stroke-linejoin:miter;stroke-miterlimit:4;stroke-dasharray:none;stroke-opacity:1" d="m 4.4790158,4.6273074 2.7941168,10.0957056 1.7240737,6.229364 v 0" id="path50154-5" sodipodi:nodetypes="cccc" inkscape:transform-center-x="2.2826927" inkscape:transform-center-y="-1.8005913"/><path style="fill:#5c9894;fill-opacity:1;stroke:#5c9894;stroke-width:2.43543;stroke-linecap:butt;stroke-linejoin:miter;stroke-miterlimit:4;stroke-dasharray:none;stroke-opacity:1" d="m 11.57695,20.169506 3.619272,-3.079975 2.233198,-1.900509 v 0" id="path50154-6" sodipodi:nodetypes="cccc"/></g></g></svg>